<svg xmlns="http://www.w3.org/2000/svg" viewBox="0 0 1200 760" role="img" aria-labelledby="title desc">
  <title id="title">Tournament Media Placeholder</title>
  <desc id="desc">Placeholder image for upcoming tournament photo gallery slot.</desc>
  <defs>
    <linearGradient id="bg" x1="0%" y1="0%" x2="100%" y2="100%">
      <stop offset="0%" stop-color="#0b2d1e" />
      <stop offset="55%" stop-color="#1d7b4f" />
      <stop offset="100%" stop-color="#2ea367" />
    </linearGradient>
    <radialGradient id="halo" cx="30%" cy="20%" r="70%">
      <stop offset="0%" stop-color="#d8fbe8" stop-opacity="0.35" />
      <stop offset="100%" stop-color="#d8fbe8" stop-opacity="0" />
    </radialGradient>
  </defs>
  <rect width="1200" height="760" fill="url(#bg)" />
  <rect width="1200" height="760" fill="url(#halo)" />
  <g fill="none" stroke="#d8fbe8" stroke-opacity="0.35" stroke-width="4">
    <circle cx="1060" cy="120" r="180" />
    <circle cx="1040" cy="660" r="220" />
    <circle cx="170" cy="640" r="170" />
  </g>
  <g fill="#d8fbe8">
    <circle cx="600" cy="350" r="88" fill-opacity="0.17" />
    <path d="M560 294h80c14 0 26 12 26 26v62c0 14-12 26-26 26h-80c-14 0-26-12-26-26v-62c0-14 12-26 26-26z" fill-opacity="0.92"/>
    <path d="M557 330l34 34 22-22 49 49H557z" fill="#0b2d1e" fill-opacity="0.9"/>
    <circle cx="618" cy="328" r="11" fill="#0b2d1e" fill-opacity="0.9"/>
  </g>
  <text x="600" y="510" text-anchor="middle" fill="#e9fff3" font-family="Barlow Condensed, Arial Narrow, sans-serif" font-size="76" letter-spacing="3">
    FUTURE TOURNAMENT GALLERY
  </text>
  <text x="600" y="566" text-anchor="middle" fill="#d8fbe8" font-family="Space Grotesk, Arial, sans-serif" font-size="30" letter-spacing="1">
    Photos will be added after tournament participation
  </text>
</svg>
